<?xml version="1.0" encoding="UTF-8" standalone="no"?>
<!-- Created with Inkscape (http://www.inkscape.org/) -->

<svg
   xmlns:dc="http://purl.org/dc/elements/1.1/"
   xmlns:cc="http://creativecommons.org/ns#"
   xmlns:rdf="http://www.w3.org/1999/02/22-rdf-syntax-ns#"
   xmlns:svg="http://www.w3.org/2000/svg"
   xmlns="http://www.w3.org/2000/svg"
   xmlns:sodipodi="http://sodipodi.sourceforge.net/DTD/sodipodi-0.dtd"
   xmlns:inkscape="http://www.inkscape.org/namespaces/inkscape"
   id="svg3372"
   version="1.1"
   inkscape:version="0.91 r13725"
   width="3452.5"
   height="1506.25"
   viewBox="0 0 3452.5 1506.25"
   sodipodi:docname="text.svg">
  <metadata
     id="metadata3378">
    <rdf:RDF>
      <cc:Work
         rdf:about="">
        <dc:format>image/svg+xml</dc:format>
        <dc:type
           rdf:resource="http://purl.org/dc/dcmitype/StillImage" />
        <dc:title></dc:title>
      </cc:Work>
    </rdf:RDF>
  </metadata>
  <sodipodi:namedview
     pagecolor="#ffffff"
     bordercolor="#666666"
     borderopacity="1"
     objecttolerance="10"
     gridtolerance="10"
     guidetolerance="10"
     inkscape:pageopacity="0"
     inkscape:pageshadow="2"
     inkscape:window-width="1536"
     inkscape:window-height="801"
     id="namedview3374"
     showgrid="false"
     inkscape:zoom="0.40057929"
     inkscape:cx="1726.25"
     inkscape:cy="753.125"
     inkscape:window-x="-8"
     inkscape:window-y="-8"
     inkscape:window-maximized="1"
     inkscape:current-layer="g3382" />
  <g
     id="g3382"
     transform="translate(0,-0.1884)">
    <path
       style="fill:#ffffff"
       d="m 1790.0001,1504.8965 c -50.7151,-3.8317 -77.5676,-28.6652 -82.4509,-76.2515 -0.7177,-6.9947 -1.2991,-41.4076 -1.2991,-76.9025 l 0,-64.2425 83.75,0 83.75,0 0,46.875 0,46.875 85,0 85,0 0,-84.2625 0,-84.2625 -106.5625,-0.5538 c -113.872,-0.5918 -116.8736,-0.7456 -140.9375,-7.22 -24.3549,-6.5527 -45.2056,-18.4343 -61.3842,-34.9793 -19.4367,-19.8767 -30.7231,-41.9101 -37.7407,-73.6775 -2.6227,-11.8724 -2.6347,-12.9436 -3.066,-271.91941 -0.3069,-184.26467 -0.03,-263.64112 0.9494,-272.5 2.8581,-25.84432 11.1395,-49.56764 23.8231,-68.24521 20.7559,-30.56429 55.7656,-47.50733 105.5879,-51.09935 10.5331,-0.75941 90.7015,-1.26284 202.1536,-1.26946 l 184.6982,-0.011 -0.3232,504.6875 -0.3231,504.68753 -2.7274,9.5544 c -10.0585,35.2375 -32.3962,51.4561 -75.4832,54.8059 -18.5558,1.4425 -323.192,1.3636 -342.4144,-0.089 z m 247.5,-683.02151 0,-253.125 -58.4375,0.0149 c -44.8042,0.0113 -59.8956,0.40491 -64.6875,1.68685 -21.672,5.79777 -37.3944,22.59356 -44.0415,47.04831 -2.0681,7.60859 -2.2085,20.79686 -2.2085,207.5 0,186.65225 0.1408,199.88445 2.2055,207.35885 4.6904,16.9787 13.7936,28.9881 27.0749,35.7182 13.0144,6.5948 14.8485,6.7521 79.7821,6.8407 l 60.3125,0.082 0,-253.12499 z m 500,612.59421 0,-71.9692 56.25,0 56.25,0 0,-465.62501 0,-465.625 83.7606,0 83.7606,0 -0.3266,504.6875 c -0.315,487.02631 -0.4075,504.97191 -2.6425,512.81251 -8.6984,30.5159 -26.2492,47.0431 -57.4021,54.0543 -11.0471,2.4862 -15.8401,2.6153 -115.5875,3.114 l -104.0625,0.5201 0,-71.9692 z M 0,609.37499 0,-1.9e-5 l 238.5685,0 c 151.7752,0 244.3068,0.46597 254.3415,1.28081 18.6988,1.51839 33.4022,5.45598 47.6533,12.76159 15.1091,7.74543 30.6567,23.76071 38.5481,39.7076 3.232,6.53125 7.4248,17.499999 9.3173,24.374999 l 3.4409,12.5 0.3788,173.75 c 0.2728,125.11887 -0.02,176.54065 -1.0446,183.72043 -3.4695,24.30352 -12.9865,44.88883 -29.6211,64.07069 -7.5632,8.72133 -15.4595,14.1476 -69.3952,47.68777 -19.0781,11.86382 -34.6753,21.95321 -34.6603,22.42086 0.015,0.46764 14.1967,9.56901 31.5151,20.22526 51.5629,31.72743 66.8552,42.20936 75.7199,51.9013 14.5299,15.88595 24.129,34.6351 29.4111,57.4466 2.5788,11.13654 2.6167,13.71546 3.0444,206.9021 0.2971,134.18111 0.01,199.74741 -0.9174,208.75001 -1.6698,16.2282 -4.7224,28.2524 -10.1769,40.0859 -14.1533,30.706 -41.0541,46.4852 -85.0864,49.909 -9.0805,0.7061 -115.1627,1.21 -258.2245,1.2267 L 0,1218.7496 0,609.37459 Z m 418.7173,284.0625 -0.033,-175.3125 -46.5468,-30.9375 -46.5469,-30.9375 -72.7954,0 -72.7955,0 0,206.25 0,206.25001 119.375,0 119.375,0 -0.033,-175.31251 z m -52.6858,-414.9807 46.4685,-34.0432 0,-147.20681 0,-147.20679 -116.25,0 -116.25,0 0,181.25 0,181.25 69.7815,0 69.7814,0 46.4686,-34.0432 z m 371.4685,130.9182 0,-609.375009 86.875,0 86.875,0 0,609.375009 0,609.37501 -86.875,0 -86.875,0 0,-609.37501 z m 390.625,608.09691 c -34.5527,-2.6743 -55.9493,-14.6863 -67.2541,-37.7567 -5.516,-11.2568 -7.8673,-20.3676 -9.5579,-37.0351 -1.7517,-17.2703 -1.7854,-618.40866 -0.036,-635.02191 2.6277,-24.948 8.4187,-38.84085 21.7322,-52.13682 10.1758,-10.16234 19.5318,-15.28842 35.7404,-19.58192 l 10.625,-2.81446 186.25,0 186.2501,0 9.9436,2.87895 c 29.5156,8.54554 47.4837,27.11014 55.8907,57.74605 l 2.9157,10.625 0,323.75 c 0,311.13181 -0.09,324.09101 -2.3148,332.50001 -8.0807,30.5454 -25.8867,47.5166 -57.4102,54.7185 -11.395,2.6033 -13.4918,2.6356 -185.9001,2.8645 -95.9063,0.1272 -180,-0.204 -186.875,-0.7361 z m 265.625,-392.47191 0,-250 -88.125,0 -88.125,0 0,250 0,250.00001 88.125,0 88.125,0 0,-250.00001 z M 2343.7501,1125 l 0,-93.75 86.875,0 86.875,0 0,93.75 0,93.75 -86.875,0 -86.875,0 0,-93.75 z m 690.3672,92.4129 c -33.6018,-2.5844 -56.2968,-15.721 -67.2377,-38.9192 -9.9111,-21.0151 -10.6271,-30.1979 -10.6285,-136.3062 l 0,-85.93751 80.625,0 80.625,0 0,65.62501 0,65.625 81.875,0 81.875,0 -0.012,-62.8125 -0.013,-62.81251 -137.8036,-81.77543 c -75.7858,-44.97647 -141.1724,-84.14548 -145.2974,-87.04225 -8.8842,-6.23892 -20.5926,-17.93908 -26.4001,-26.38156 -4.8133,-6.99701 -10.717,-21.49102 -13.157,-32.30076 -1.3527,-5.9924 -1.6929,-29.10901 -1.6929,-115 0,-118.85005 -0.1375,-116.53381 8.2015,-138.10536 9.9025,-25.61559 33.1938,-42.8316 64.2985,-47.52683 5.9154,-0.89292 63.8221,-1.19908 178.75,-0.94508 191.5759,0.4234 175.069,-0.44099 197.5,10.34212 21.729,10.44566 34.8871,28.1434 41.3471,55.61209 1.9714,8.38239 2.2558,18.85252 2.691,99.06056 l 0.4866,89.6875 -84.4498,0 -84.4499,0 0,-62.5 0,-62.5 -81.8878,0 -81.8877,0 0.3252,56.44771 0.3253,56.44772 116.875,69.21741 c 64.2812,38.06957 130.1507,77.10611 146.3765,86.74785 38.8599,23.09139 51.2087,34.38645 60.4544,55.29559 7.112,16.08388 7.0448,14.6223 6.6308,144.59373 -0.4258,133.6659 0.207,124.2752 -9.746,144.6093 -6.4725,13.2235 -16.2503,23.1791 -29.5722,30.11 -12.893,6.7076 -26.0646,10.0127 -45.949,11.5296 -19.2405,1.4679 -309.8624,1.3919 -329.0773,-0.086 z m -384.1172,-989.28792 0,-90.62499 83.75,0 83.75,0 0,90.62499 0,90.625 -83.75,0 -83.75,0 0,-90.625 z"
       id="path3384"
       inkscape:connector-curvature="0" />
  </g>
</svg>
